<mxfile host="app.diagrams.net" modified="2024-04-22T02:55:04.814Z" agent="Mozilla/5.0 (X11; Linux x86_64) AppleWebKit/537.36 (KHTML, like Gecko) Chrome/123.0.0.0 Safari/537.36" version="24.2.7" etag="so0Nzng3kAKM4BDGoNkn" type="github">
  <diagram name="Page-1" id="Asx_CSuMTySIzwNM7Kds">
    <mxGraphModel>
      <root>
        <mxCell id="0" />
        <mxCell id="1" parent="0" />
      </root>
    </mxGraphModel>
  </diagram>
</mxfile>
